<?xml version="1.0" encoding="utf-8"?>
<!-- Generator: Adobe Illustrator 21.0.0, SVG Export Plug-In . SVG Version: 6.00 Build 0)  -->
<svg xmlns="http://www.w3.org/2000/svg" xmlns:xlink="http://www.w3.org/1999/xlink" version="1.1" id="Layer_1" x="0px" y="0px" viewBox="0 0 256 256" style="enable-background:new 0 0 256 256;" xml:space="preserve" width="512" height="512">
<style type="text/css">
	.st0{fill:#E9E9EA;}
	.st1{fill:#898989;}
	.st2{fill:#B26E3B;}
	.st3{fill:#FFCD29;}
	.st4{fill:#EA4647;}
	.st5{fill:#6DCC6D;}
	.st6{fill:#55ACD5;}
	.st7{fill:#231F20;}
</style>
<g id="Layer_41">
	<path class="st0" d="M137.7,7.9c-10.2,0-18.4,8.3-18.4,18.4v4.6h10.3v-4.6c0-4.5,3.7-8.2,8.2-8.2c4.5,0,8.2,3.7,8.2,8.2v4.6h10.3   v-4.6C156.1,16.1,147.8,7.9,137.7,7.9z"/>
	<path class="st1" d="M170.4,30.9H105c-4.2,0-7.7,3.4-7.7,7.7s3.4,7.7,7.7,7.7h65.4c4.2,0,7.7-3.4,7.7-7.7S174.6,30.9,170.4,30.9   L170.4,30.9z"/>
	<path class="st2" d="M217.7,33.4h-41.6c2.8,3.2,2.6,8-0.6,10.9c-1.4,1.3-3.2,2-5.1,2H105c-4.2,0-7.7-3.4-7.7-7.7   c0-1.9,0.7-3.7,2-5.1H57.1c-6.1,0-11.1,5-11.1,11.1v197.8c0,6.1,5,11.1,11.1,11.1h160.6c6.1,0,11.1-5,11.1-11.1V44.6   C228.8,38.4,223.8,33.4,217.7,33.4z"/>
	<path class="st0" d="M217.7,43.7h-41.6c-1.5,1.6-3.5,2.6-5.7,2.6H105c-2.2,0-4.3-0.9-5.7-2.6H57.1c-0.5,0-0.8,0.4-0.9,0.9v197.8   c0,0.5,0.4,0.8,0.9,0.9h131.2l30.3-30.3V44.6C218.5,44.1,218.2,43.7,217.7,43.7z"/>
	<path class="st3" d="M111.7,136.3c0.2-0.2,0.2-0.5,0-0.7c-0.1-0.1-0.2-0.1-0.3-0.1l-11.6-1.7c-0.2,0-0.3-0.1-0.4-0.3l-5.2-10.5   c-0.1-0.2-0.4-0.3-0.6-0.2c-0.1,0-0.2,0.1-0.2,0.2l-5.2,10.5c-0.1,0.1-0.2,0.2-0.4,0.3l-11.6,1.7c-0.3,0-0.4,0.3-0.4,0.5   c0,0.1,0.1,0.2,0.1,0.3l8.4,8.2c0.1,0.1,0.2,0.3,0.1,0.4l-2,11.5c0,0.3,0.1,0.5,0.4,0.5c0.1,0,0.2,0,0.3,0l10.4-5.4   c0.1-0.1,0.3-0.1,0.4,0l10.4,5.4c0.2,0.1,0.5,0,0.6-0.2c0-0.1,0.1-0.2,0-0.3l-2-11.5c0-0.2,0-0.3,0.1-0.4L111.7,136.3z"/>
	<path class="st3" d="M155.5,136.3c0.2-0.2,0.2-0.5,0-0.7c-0.1-0.1-0.2-0.1-0.3-0.1l-11.6-1.7c-0.2,0-0.3-0.1-0.4-0.3l-5.2-10.5   c-0.1-0.2-0.4-0.3-0.6-0.2c-0.1,0-0.2,0.1-0.2,0.2l-5.2,10.5c-0.1,0.1-0.2,0.2-0.4,0.3l-11.6,1.7c-0.3,0-0.4,0.3-0.4,0.5   c0,0.1,0.1,0.2,0.1,0.3l8.4,8.2c0.1,0.1,0.2,0.3,0.1,0.4l-2,11.5c0,0.3,0.1,0.5,0.4,0.5c0.1,0,0.2,0,0.3,0l10.4-5.4   c0.1-0.1,0.3-0.1,0.4,0l10.4,5.4c0.2,0.1,0.5,0,0.6-0.2c0-0.1,0.1-0.2,0-0.3l-2-11.5c0-0.2,0-0.3,0.1-0.4L155.5,136.3z"/>
	<path class="st3" d="M199.2,136.3c0.2-0.2,0.2-0.5,0-0.7c-0.1-0.1-0.2-0.1-0.3-0.1l-11.6-1.7c-0.2,0-0.3-0.1-0.4-0.3l-5.2-10.5   c-0.1-0.2-0.4-0.3-0.6-0.2c-0.1,0-0.2,0.1-0.2,0.2l-5.2,10.5c-0.1,0.1-0.2,0.2-0.4,0.3l-11.6,1.7c-0.3,0-0.4,0.3-0.4,0.5   c0,0.1,0.1,0.2,0.1,0.3l8.4,8.2c0.1,0.1,0.2,0.3,0.1,0.4l-2,11.5c0,0.3,0.1,0.5,0.4,0.5c0.1,0,0.2,0,0.3,0l10.4-5.4   c0.1-0.1,0.3-0.1,0.4,0L192,157c0.2,0.1,0.5,0,0.6-0.2c0-0.1,0.1-0.2,0-0.3l-2-11.5c0-0.2,0-0.3,0.1-0.4L199.2,136.3z"/>
	<path class="st3" d="M133.4,180.7c0.2-0.2,0.2-0.5,0-0.7c-0.1-0.1-0.2-0.1-0.3-0.1l-11.6-1.7c-0.2,0-0.3-0.1-0.4-0.3l-5.2-10.5   c-0.1-0.2-0.4-0.3-0.6-0.2c-0.1,0-0.2,0.1-0.2,0.2l-5.2,10.5c-0.1,0.1-0.2,0.2-0.4,0.3L98,179.9c-0.3,0-0.4,0.3-0.4,0.5   c0,0.1,0.1,0.2,0.1,0.3l8.4,8.2c0.1,0.1,0.2,0.3,0.1,0.4l-2,11.5c0,0.3,0.1,0.5,0.4,0.5c0.1,0,0.2,0,0.3,0l10.4-5.4   c0.1-0.1,0.3-0.1,0.4,0l10.4,5.4c0.2,0.1,0.5,0,0.6-0.2c0-0.1,0.1-0.2,0-0.3l-2-11.5c0-0.2,0-0.3,0.1-0.4L133.4,180.7z"/>
	<path class="st3" d="M177.1,180.7c0.2-0.2,0.2-0.5,0-0.7c-0.1-0.1-0.2-0.1-0.3-0.1l-11.6-1.7c-0.2,0-0.3-0.1-0.4-0.3l-5.2-10.5   c-0.1-0.2-0.4-0.3-0.6-0.2c-0.1,0-0.2,0.1-0.2,0.2l-5.2,10.5c-0.1,0.1-0.2,0.2-0.4,0.3l-11.6,1.7c-0.3,0-0.4,0.3-0.4,0.5   c0,0.1,0.1,0.2,0.1,0.3l8.4,8.2c0.1,0.1,0.2,0.3,0.1,0.4l-2,11.5c0,0.3,0.1,0.5,0.4,0.5c0.1,0,0.2,0,0.3,0l10.4-5.4   c0.1-0.1,0.3-0.1,0.4,0l10.4,5.4c0.2,0.1,0.5,0,0.6-0.2c0-0.1,0.1-0.2,0-0.3l-2-11.5c0-0.2,0-0.3,0.1-0.4L177.1,180.7z"/>
	<path class="st3" d="M189.1,213c-0.5,0-0.8,0.4-0.9,0.9v29.4l30.3-30.3L189.1,213z"/>
	<path class="st4" d="M216.8,0c-1.4,0-2.5,1.1-2.5,2.5c0,0.7,0.3,1.3,0.7,1.8c1,1,2.6,0.9,3.6-0.1c0.4-0.5,0.7-1.1,0.7-1.7   C219.3,1.1,218.2,0,216.8,0z"/>
	<path class="st5" d="M15,185.9c-0.8,0-1.5,0.7-1.5,1.5c0,0.8,0.7,1.5,1.5,1.5c0.8,0,1.5-0.7,1.5-1.5c0,0,0,0,0,0   C16.5,186.6,15.9,185.9,15,185.9z"/>
	<path class="st6" d="M36.6,208.9c-3.8-0.7-6.8-3.7-7.5-7.5c0-0.1-0.1-0.2-0.2-0.1c-0.1,0-0.1,0.1-0.1,0.1c-0.7,3.8-3.7,6.8-7.5,7.5   c-0.1,0-0.2,0.1-0.1,0.2c0,0.1,0.1,0.1,0.1,0.1c3.8,0.7,6.8,3.7,7.5,7.5c0,0.1,0.1,0.2,0.2,0.1c0.1,0,0.1-0.1,0.1-0.1   c0.7-3.8,3.7-6.8,7.5-7.5c0.1,0,0.2-0.1,0.1-0.2C36.8,209,36.7,208.9,36.6,208.9z"/>
	<path class="st3" d="M240,16.9h-1.8V15c0-1.4-1.1-2.5-2.5-2.5s-2.5,1.1-2.5,2.5v1.8h-1.8c-1.4,0-2.5,1.1-2.5,2.5s1.1,2.5,2.5,2.5   h1.8v1.8c0,1.4,1.1,2.5,2.5,2.5s2.5-1.1,2.5-2.5v-1.8h1.8c1.4,0,2.5-1.1,2.5-2.5S241.4,16.9,240,16.9z"/>
	<path class="st7" d="M220.9,212c-0.4-0.9-1.3-1.5-2.3-1.5h-29.4c-1.9,0-3.4,1.5-3.4,3.4v29.4c0,1.4,1.1,2.5,2.5,2.5   c0.7,0,1.3-0.3,1.8-0.7l30.3-30.3C221,214,221.3,212.9,220.9,212z M190.8,237.2v-21.7h21.7L190.8,237.2z"/>
	<path class="st7" d="M217.7,30.9h-41.6c-1.4,0-2.5,1.1-2.5,2.5c0,0.6,0.2,1.2,0.6,1.7c1.9,2.1,1.7,5.4-0.4,7.3   c-1,0.9-2.2,1.3-3.5,1.3H105c-2.9,0-5.2-2.3-5.2-5.2c0-1.3,0.5-2.5,1.3-3.5c0.9-1,0.8-2.6-0.2-3.5c-0.5-0.4-1.1-0.6-1.7-0.6H57.1   c-7.5,0-13.6,6.1-13.6,13.6v197.8c0,7.5,6.1,13.6,13.6,13.6h160.6c7.5,0,13.6-6.1,13.6-13.6V44.6C231.3,37,225.2,30.9,217.7,30.9z    M226.3,242.4c0,4.8-3.9,8.6-8.6,8.6H57.1c-4.8,0-8.6-3.9-8.6-8.6V44.6c0-4.8,3.9-8.6,8.6-8.6h38c-1.5,5.4,1.8,11,7.2,12.5   c0.9,0.2,1.7,0.3,2.6,0.3h65.4c5.6,0,10.2-4.6,10.2-10.2c0-0.9-0.1-1.8-0.3-2.6h37.5c4.8,0,8.6,3.9,8.6,8.6V242.4z"/>
	<path class="st7" d="M170.4,28.4H105c-5.6,0-10.2,4.6-10.2,10.2s4.6,10.2,10.2,10.2h65.4c5.6,0,10.2-4.6,10.2-10.2   S176,28.4,170.4,28.4L170.4,28.4z M170.4,43.8H105c-2.9,0-5.2-2.3-5.2-5.2s2.3-5.2,5.2-5.2h65.4c2.9,0,5.2,2.3,5.2,5.2   S173.2,43.8,170.4,43.8L170.4,43.8L170.4,43.8z"/>
	<path class="st7" d="M217.7,41.2h-41.6c-0.7,0-1.4,0.3-1.9,0.8c-1,1.1-2.4,1.7-3.9,1.7H105c-1.5,0-2.9-0.6-3.9-1.7   c-0.5-0.5-1.2-0.8-1.9-0.8H57.1c-1.9,0-3.4,1.5-3.4,3.4v197.8c0,1.9,1.5,3.4,3.4,3.4h131.2c0.7,0,1.3-0.3,1.8-0.7l30.3-30.3   c0.5-0.5,0.7-1.1,0.7-1.8V44.6C221.1,42.7,219.6,41.2,217.7,41.2z M216.1,211.9l-28.8,28.8H58.8V46.2h39.5c1.9,1.6,4.3,2.6,6.7,2.6   h65.4c2.5,0,4.9-0.9,6.7-2.6h39L216.1,211.9z"/>
	<path class="st7" d="M137.7,5.4c-11.6,0-20.9,9.4-20.9,20.9v4.6c0,1.4,1.1,2.5,2.5,2.5l0,0h10.3c1.4,0,2.5-1.1,2.5-2.5v-4.6   c0-3.1,2.5-5.7,5.7-5.7c3.1,0,5.7,2.5,5.7,5.7v4.6c0,1.4,1.1,2.5,2.5,2.5h10.3c1.4,0,2.5-1.1,2.5-2.5v-4.6   C158.6,14.7,149.2,5.4,137.7,5.4z M153.6,28.4h-5.3v-2.1c0-5.9-4.8-10.7-10.7-10.7c-5.9,0-10.7,4.8-10.7,10.7v2.1h-5.3v-2.1   c0-8.8,7.1-15.9,15.9-15.9s15.9,7.1,15.9,15.9L153.6,28.4z"/>
	<path class="st7" d="M166.9,43.8c-1.4,0-2.5,1.1-2.5,2.5v6.9c0,2.1-1.7,3.8-3.8,3.8h-45.9c-2.1,0-3.8-1.7-3.8-3.8v-6.9   c0-1.4-1.1-2.5-2.5-2.5s-2.5,1.1-2.5,2.5v6.9c0,4.8,3.9,8.8,8.8,8.8h45.9c4.8,0,8.8-3.9,8.8-8.8v-6.9   C169.4,44.9,168.3,43.8,166.9,43.8z"/>
	<path class="st7" d="M114.2,135.1c-0.3-1.1-1.3-1.9-2.4-2l-10.5-1.5l-4.7-9.5c-0.7-1.5-2.5-2.1-4-1.4c-0.6,0.3-1.1,0.8-1.4,1.4   l-4.7,9.5L76,133c-1.6,0.2-2.8,1.7-2.5,3.4c0.1,0.6,0.4,1.2,0.9,1.7l7.6,7.4L80.2,156c-0.3,1.6,0.8,3.2,2.4,3.4   c0.6,0.1,1.3,0,1.9-0.3l9.4-5l9.4,5c1.5,0.8,3.3,0.2,4-1.3c0.3-0.6,0.4-1.2,0.3-1.9l-1.8-10.5l7.6-7.4   C114.3,137.3,114.6,136.2,114.2,135.1z M101.6,142.7c-0.7,0.7-1,1.7-0.9,2.6l1.3,7.5l-6.7-3.5c-0.9-0.5-1.9-0.5-2.8,0l-6.7,3.5   l1.3-7.5c0.2-1-0.2-1.9-0.9-2.6l-5.4-5.3l7.5-1.1c1-0.1,1.8-0.7,2.2-1.6l3.4-6.8l3.4,6.8c0.4,0.9,1.3,1.5,2.2,1.6l7.5,1.1   L101.6,142.7z"/>
	<path class="st7" d="M158,135.1c-0.3-1.1-1.3-1.9-2.4-2l-10.5-1.5l-4.7-9.5c-0.5-1-1.5-1.7-2.7-1.7l0,0c-1.1,0-2.2,0.6-2.7,1.7   l-4.7,9.5l-10.5,1.5c-1.6,0.2-2.8,1.7-2.5,3.4c0.1,0.6,0.4,1.2,0.9,1.7l7.6,7.4l-1.8,10.5c-0.3,1.6,0.8,3.2,2.4,3.4   c0.6,0.1,1.3,0,1.9-0.3l9.4-5l9.4,5c1.5,0.8,3.3,0.2,4-1.3c0.3-0.6,0.4-1.2,0.3-1.9l-1.8-10.5l7.6-7.4   C158,137.3,158.3,136.1,158,135.1z M145.4,142.7c-0.7,0.7-1,1.7-0.9,2.6l1.3,7.5l-6.7-3.5c-0.9-0.5-1.9-0.5-2.8,0l-6.7,3.5l1.3-7.5   c0.2-1-0.2-2-0.9-2.6l-5.4-5.3l7.5-1.1c1-0.1,1.8-0.7,2.2-1.6l3.4-6.8l3.4,6.8c0.4,0.9,1.3,1.5,2.2,1.6l7.5,1.1L145.4,142.7z"/>
	<path class="st7" d="M201.7,135.1c-0.3-1.1-1.3-1.9-2.4-2l-10.5-1.5l-4.7-9.5l0,0c-0.5-1-1.5-1.7-2.7-1.7l0,0   c-1.1,0-2.2,0.6-2.7,1.7l-4.7,9.5l-10.5,1.5c-1.6,0.2-2.8,1.7-2.5,3.4c0.1,0.6,0.4,1.2,0.9,1.7l7.6,7.4l-1.8,10.5   c-0.3,1.6,0.8,3.2,2.4,3.4c0.6,0.1,1.3,0,1.9-0.3l9.4-5l9.4,5c1.5,0.8,3.3,0.2,4-1.3c0.3-0.6,0.4-1.2,0.3-1.9l-1.8-10.5l7.6-7.4   C201.8,137.3,202.1,136.2,201.7,135.1z M189.1,142.7c-0.7,0.7-1,1.7-0.9,2.6l1.3,7.5l-6.7-3.5c-0.9-0.5-1.9-0.5-2.8,0l-6.7,3.5   l1.3-7.5c0.2-1-0.2-1.9-0.9-2.6l-5.4-5.3l7.5-1.1c1-0.1,1.8-0.7,2.2-1.6l3.4-6.8l3.4,6.8c0.4,0.9,1.3,1.5,2.2,1.6l7.5,1.1   L189.1,142.7z"/>
	<path class="st7" d="M135.9,179.4c-0.3-1.1-1.3-1.9-2.4-2l-10.5-1.5l-4.7-9.5l0,0c-0.7-1.5-2.5-2.1-4-1.4c-0.6,0.3-1.1,0.8-1.4,1.4   l-4.7,9.5l-10.5,1.5c-1.6,0.2-2.8,1.7-2.5,3.4c0.1,0.6,0.4,1.2,0.9,1.7l7.6,7.4l-1.8,10.5c-0.3,1.6,0.8,3.2,2.4,3.4   c0.6,0.1,1.3,0,1.9-0.3l9.4-5l9.4,5c1.5,0.8,3.3,0.2,4-1.2c0.3-0.6,0.4-1.2,0.3-1.9l-1.8-10.5l7.6-7.4   C135.9,181.7,136.2,180.5,135.9,179.4z M123.2,187.1c-0.7,0.7-1,1.7-0.9,2.6l1.3,7.5l-6.7-3.5c-0.9-0.5-1.9-0.5-2.8,0l-6.7,3.5   l1.3-7.5c0.2-1-0.2-1.9-0.9-2.6l-5.4-5.3l7.5-1.1c1-0.1,1.8-0.7,2.2-1.6l3.4-6.8l3.4,6.8c0.4,0.9,1.3,1.5,2.2,1.6l7.5,1.1   L123.2,187.1z"/>
	<path class="st7" d="M179.6,179.4c-0.3-1.1-1.3-1.9-2.4-2l-10.5-1.5l-4.7-9.5c-0.7-1.5-2.5-2.1-4-1.4c-0.6,0.3-1.1,0.8-1.4,1.4   l-4.7,9.5l-10.5,1.5c-1.6,0.2-2.8,1.7-2.5,3.4c0.1,0.6,0.4,1.2,0.9,1.7l7.6,7.4l-1.8,10.5c-0.3,1.6,0.8,3.2,2.4,3.4   c0.6,0.1,1.3,0,1.9-0.3l9.4-5l9.4,5c1.5,0.8,3.3,0.2,4-1.2c0.3-0.6,0.4-1.2,0.3-1.9l-1.8-10.5l7.6-7.4   C179.7,181.7,180,180.5,179.6,179.4z M167,187.1c-0.7,0.7-1,1.7-0.9,2.6l1.3,7.5l-6.7-3.5c-0.9-0.5-1.9-0.5-2.8,0l-6.7,3.5l1.3-7.5   c0.2-1-0.2-1.9-0.9-2.6l-5.4-5.3l7.5-1.1c1-0.1,1.8-0.7,2.2-1.6l3.4-6.8l3.4,6.8c0.4,0.9,1.3,1.5,2.2,1.6l7.5,1.1L167,187.1z"/>
	<path class="st7" d="M153.2,76.5h-31.1c-1.4,0-2.5,1.1-2.5,2.5s1.1,2.5,2.5,2.5h31.1c1.4,0,2.5-1.1,2.5-2.5S154.6,76.5,153.2,76.5z   "/>
	<path class="st7" d="M174.9,89.7h-74.3c-1.4,0-2.5,1.1-2.5,2.5s1.1,2.5,2.5,2.5h74.3c1.4,0,2.5-1.1,2.5-2.5S176.3,89.7,174.9,89.7z   "/>
	<path class="st7" d="M174.9,102.9h-74.3c-1.4,0-2.5,1.1-2.5,2.5s1.1,2.5,2.5,2.5h74.3c1.4,0,2.5-1.1,2.5-2.5   S176.3,102.9,174.9,102.9z"/>
</g>
</svg>
